<svg width="32" height="32" viewBox="0 0 32 32" xmlns="http://www.w3.org/2000/svg"><g fill="none" fill-rule="evenodd"><circle fill="#0054F9" fill-rule="nonzero" cx="16" cy="16" r="16"/><path d="M28.445 14.517c.036.268.063.538.082.811l-.028-.336-.06.336a8.527 8.527 0 01-.077.339l-.09.338-.046.155a6.785 6.785 0 01-1.027 1.986 6.664 6.664 0 01-1.335 1.399 1.031 1.031 0 00-.262.31 1.493 1.493 0 00-.12.488l-.02.253-.01.108-.01.099-.012.092-.013.089-.016.087-.04.21c-.203 1.028-.571 1.784-1.147 2.656l-.612.885c-.929 1.222-2.022 2.01-3.332 2.393l-.276.083-.283.04a7.065 7.065 0 01-1.13.1h-.502l-.31.02c-.209 0-.402.037-.626.117-.91.286-1.997.425-3.335.425h-.169l-.254-.005-.173-.004-.27-.01-.19-.008-.304-.015-.21-.01a12.552 12.552 0 01-.583-.198l.8.048.303.015.28.012.264.008.17.004.252.003h.23c1.255-.01 2.28-.148 3.137-.416.237-.086.45-.125.672-.125l.31-.02h.508c.339 0 .714-.035 1.106-.1l.272-.037.367-.112c1.23-.384 2.262-1.141 3.144-2.302l.608-.88c.587-.887.953-1.651 1.147-2.717l.008-.044.016-.086.014-.085.012-.088.01-.094.011-.101.015-.173.014-.205a1.66 1.66 0 01.13-.467c.066-.13.174-.258.306-.368a6.51 6.51 0 001.306-1.367c.446-.6.785-1.254 1.003-1.94.141-.457.242-.913.301-1.36v-.04l.007-.03zm-.574-2.398c.042.12.083.243.122.366l-.019.143-.02.15-.005.028-.03.184v.053a6.62 6.62 0 01-.414 1.383l-.013.025v.022c0 .02-.001.035-.007.059l-.01.045-.003.016v.068a5.651 5.651 0 01-.268 1.178 6.226 6.226 0 01-.862 1.683l-.077.106a5.888 5.888 0 01-1.181 1.195c-.183.126-.34.31-.465.536a1.397 1.397 0 00-.173.685c0 .302-.035.599-.103.936a6.058 6.058 0 01-.613 1.715l-.05.092-.048.088-.078.134-.09.147-.149.237-.448.643c-.814 1.112-1.745 1.811-2.86 2.131l-.07.023a.675.675 0 00-.016.003l-.033.008-.079.022-.045.012a.627.627 0 01-.065.012l-.05.003-.058.02c-.254.05-.533.075-.835.08l-.114.001h-.525l-.053.002-.307.015-.07.003h-.094a1.376 1.376 0 00-.199.02l-.074.013-.083.018-.045.011-.1.025-.115.03c-.94.274-1.93.404-3.17.404h-.23l-.154-.003-.234-.007-.246-.01-.264-.012-.29-.016-.836-.052-.117-.001-.097-.02-.096-.013-.116-.014-.064-.006-.06-.004-.058-.002h-.03c-.837-.083-1.45-.202-2.12-.469a14.089 14.089 0 01-.704-.532c.088.055.178.109.271.16l.097.058.12.06c.764.343 1.413.481 2.344.574h.028l.055.001.056.004.061.005.068.008.174.023.086.019h.106l.632.04.308.017.366.02.25.01.159.005.23.005.153.002h.153c1.225 0 2.202-.127 3.128-.397l.174-.046.098-.024.088-.018.079-.015c.088-.014.166-.02.251-.02h.029l.096-.003.237-.013.11-.004h.544c.336 0 .645-.025.91-.077l.061-.02.024-.003a.444.444 0 00.122-.02l.07-.02.039-.01.03-.007.063-.02c1.084-.312 1.988-.99 2.782-2.075l.445-.639.079-.124.099-.16.056-.093.052-.089.05-.086.047-.088.05-.092a5.912 5.912 0 00.573-1.628c.067-.329.1-.616.1-.907l.001-.068c.01-.247.074-.477.191-.69.135-.243.308-.445.508-.584.47-.358.881-.778 1.224-1.267l.07-.098c.324-.464.583-.983.772-1.544a5.53 5.53 0 00.26-1.14v-.06c0-.014.002-.028.005-.044l.014-.06a.08.08 0 00.002-.016v-.04l.008-.033.018-.035c.187-.452.324-.907.4-1.335l.001-.051.01-.06.04-.262c.025-.186.043-.366.053-.542z" fill="#FFF"/></g></svg>