<svg viewBox="0 0 1000 1000" xmlns="http://www.w3.org/2000/svg">
<circle cx="500" cy="500" r="500" fill="#0055D5"/>
<path fill="#FFFFFF" d="M500,150c-193,0-350,157-350,350s157,350,350,350s350-157,350-350S693,150,500,150z M500,750c-138,0-250-112-250-250s112-250,250-250s250,112,250,250S638,750,500,750z M600,400c-28,0-50,22-50,50s22,50,50,50s50-22,50-50S628,400,600,400z M400,400c-28,0-50,22-50,50s22,50,50,50s50-22,50-50S428,400,400,400z M500,600c-55,0-100,45-100,100h200C600,645,555,600,500,600z"/>
</svg>