<svg xmlns="http://www.w3.org/2000/svg" viewBox="0 0 32 32">
  <circle cx="16" cy="16" r="16" fill="#C2A633"/>
  <path fill="#FFF" d="M13.248 14.61h4.314v2.286h-4.314v4.818h2.721c1.077 0 1.958-.145 2.645-.436.686-.29 1.226-.678 1.62-1.163.393-.485.67-1.048.828-1.69.16-.64.239-1.313.239-2.018 0-.721-.085-1.397-.255-2.027-.17-.63-.45-1.18-.842-1.65-.391-.47-.914-.84-1.567-1.113-.654-.272-1.47-.408-2.45-.408h-2.939v4.8h-2.276v2.286h2.276v-3.686zm-4.553-5.4h7.416c1.37 0 2.541.204 3.514.613.972.409 1.767.964 2.384 1.664.616.7 1.066 1.516 1.35 2.447.284.932.426 1.921.426 2.969 0 1.048-.145 2.037-.435 2.968-.29.932-.746 1.748-1.367 2.449-.621.7-1.418 1.256-2.39 1.665-.972.409-2.14.613-3.502.613H8.695V9.21z"/>
</svg>
