<svg viewBox="0 0 72.7 80.9" xmlns="http://www.w3.org/2000/svg">
<defs>
<linearGradient id="a" x1="42.04" y1="0.95" x2="12.66" y2="32.8" gradientUnits="userSpaceOnUse">
<stop offset="0.58" stop-color="#A0A8D4"/>
<stop offset="0.73" stop-color="#8791C7"/>
<stop offset="0.91" stop-color="#6470B4"/>
</linearGradient>
<linearGradient id="b" x1="42.66" y1="80.02" x2="72.03" y2="48.19" gradientUnits="userSpaceOnUse">
<stop offset="0.58" stop-color="#A0A8D4"/>
<stop offset="0.73" stop-color="#8791C7"/>
<stop offset="0.91" stop-color="#6470B4"/>
</linearGradient>
<linearGradient id="c" x1="36.32" y1="-0.4" x2="36.32" y2="81.2" gradientUnits="userSpaceOnUse">
<stop offset="0" stop-color="#513EFF"/>
<stop offset="0.18" stop-color="#5157FF"/>
<stop offset="0.57" stop-color="#5298FF"/>
<stop offset="1" stop-color="#52E5FF"/>
</linearGradient>
</defs>
<path fill="url(#a)" d="M9.3,32.8c0.8,1.7,2.8,5.1,2.8,5.1L35,0L12.7,15.6c-1.3,0.9-2.4,2.1-3.2,3.5C7.4,23.4,7.4,28.4,9.3,32.8z"/>
<path fill="#A0A8D4" d="M0.3,45.2c0.5,7.3,4.2,14.1,10,18.5L35,80.9c0,0-15.5-22.3-28.5-44.5c-1.3-2.3-2.2-4.9-2.6-7.6c-0.2-1.2-0.2-2.4,0-3.6c-0.3,0.6-1,1.9-1,1.9c-1.3,2.7-2.2,5.6-2.7,8.6C-0.1,38.9-0.1,42.1,0.3,45.2z"/>
<path fill="url(#b)" d="M63.3,48.2c-0.8-1.7-2.8-5.1-2.8-5.1L37.6,80.9L60,65.4c1.3-0.9,2.4-2.1,3.2-3.5C65.2,57.6,65.3,52.6,63.3,48.2z"/>
<path fill="#A0A8D4" d="M72.4,35.7c-0.5-7.3-4.2-14.1-10-18.5L37.7,0c0,0,15.5,22.3,28.5,44.5c1.3,2.3,2.2,4.9,2.6,7.6c0.2,1.2,0.2,2.4,0,3.6c0.3-0.6,1-1.9,1-1.9c1.3-2.7,2.2-5.6,2.7-8.5C72.7,42,72.7,38.9,72.4,35.7z"/>
<path fill="url(#c)" d="M9.5,19.1c0.8-1.4,1.8-2.6,3.2-3.5L35,0L12.1,37.8c0,0-2-3.4-2.8-5.1C7.4,28.4,7.4,23.4,9.5,19.1z M0.3,45.2c0.5,7.3,4.2,14.1,10,18.5L35,80.9c0,0-15.5-22.3-28.5-44.5c-1.3-2.3-2.2-4.9-2.6-7.6c-0.2-1.2-0.2-2.4,0-3.6c-0.3,0.6-1,1.9-1,1.9c-1.3,2.7-2.2,5.6-2.7,8.6C-0.1,38.9-0.1,42.1,0.3,45.2z M63.3,48.2c-0.8-1.7-2.8-5.1-2.8-5.1L37.6,80.9L60,65.4c1.3-0.9,2.4-2.1,3.2-3.5C65.2,57.6,65.3,52.6,63.3,48.2L63.3,48.2z M72.3,35.8c-0.5-7.3-4.2-14.1-10-18.5L37.7,0c0,0,15.5,22.3,28.5,44.5c1.3,2.3,2.2,4.9,2.6,7.6c0.2,1.2,0.2,2.4,0,3.6c0.3-0.6,1-1.9,1-1.9c1.3-2.7,2.2-5.6,2.7-8.5C72.7,42,72.7,38.9,72.3,35.8L72.3,35.8z"/>
</svg>