<svg viewBox="0 0 32 32" xmlns="http://www.w3.org/2000/svg">
<circle cx="16" cy="16" r="16" fill="#F00500"/>
<path fill="#FFA409" d="M25.7,12.5c-0.1-0.4-0.1-1.1-0.2-2.2c-1.5-0.2-5.8-0.3-9.8,3c0,0-1.3-5.9-7.3-5.9s-8.2,5.9-8.2,5.9c-3.4-3.6-7.9-3.4-9.5-3.1c0,0,0,0.1,0,0.1c-0.1,0.9,0,1.3,0.1,1.9c0.5,1.8,1.9,3.7,4.2,5.7c3.7,3.2,8.7,5.4,12.5,5.7c4,0.3,9.8-2.1,13.7-5.4c0.6-0.5,1.2-1.1,1.7-1.7c0.4-0.5,1-1.2,0.9-1.2c0,0,0,0,0,0c0,0,0,0,0,0c0,0,0,0,0,0c0,0,0,0,0,0c0,0,0,0,0,0c0,0,0,0,0,0c0,0,0,0,0,0c0,0,0-0.1,0.1-0.1c0.1-0.1,0.5-0.8,0.5-0.9c0.4-0.8,0.6-1.5,0.7-2.2C25.7,13.5,25.8,12.9,25.7,12.5z"/>
<path fill="#FFFFFF" d="M25.5,12.4c-1.5-0.2-5.8-0.3-9.8,3c0,0-1.3-5.9-7.3-5.9s-8.2,5.9-8.2,5.9c-3.4-3.6-7.9-3.4-9.5-3.1c0,0.6,0,1.3,0.1,1.9c0.5,1.8,1.9,3.7,4.2,5.7c3.7,3.2,8.7,5.4,12.5,5.7c4,0.3,9.8-2.1,13.7-5.4c0.6-0.5,1.2-1.1,1.7-1.7c0.4-0.5,1-1.2,0.9-1.2c0,0,0,0,0,0c0.1-0.1,0.5-0.8,0.5-0.9c0.4-0.8,0.6-1.5,0.7-2.2C25.1,13.5,25.2,12.9,25.5,12.4z"/>
</svg>