<svg xmlns="http://www.w3.org/2000/svg" viewBox="0 0 32 32">
  <circle cx="16" cy="16" r="16" fill="#000"/>
  <defs>
    <linearGradient id="sol-grad" x1="0%" y1="0%" x2="100%" y2="100%">
      <stop offset="0%" style="stop-color:#00FFA3"/>
      <stop offset="100%" style="stop-color:#DC1FFF"/>
    </linearGradient>
  </defs>
  <path fill="url(#sol-grad)" d="M9.5 19.8c.1-.1.3-.2.5-.2h13.8c.3 0 .5.4.3.6l-2.6 2.6c-.1.1-.3.2-.5.2H7.2c-.3 0-.5-.4-.3-.6l2.6-2.6zm0-10.4c.1-.1.3-.2.5-.2h13.8c.3 0 .5.4.3.6l-2.6 2.6c-.1.1-.3.2-.5.2H7.2c-.3 0-.5-.4-.3-.6l2.6-2.6zm14.1 5.2c-.1-.1-.3-.2-.5-.2H9.3c-.3 0-.5.4-.3.6l2.6 2.6c.1.1.3.2.5.2h13.8c.3 0 .5-.4.3-.6l-2.6-2.6z"/>
</svg>
