<svg xmlns="http://www.w3.org/2000/svg" viewBox="0 0 32 32">
  <circle cx="16" cy="16" r="16" fill="#FF007A"/>
  <path fill="#FFF" d="M12.5 8c-.3 0-.5.1-.6.3-.1.2 0 .4.1.6.5.5.8 1.2.8 2 0 1.6-1.3 3-3 3-.3 0-.6.1-.8.2-.1.1-.2.3-.2.5s.1.4.3.5c.2.1.4.1.7.1 2.2 0 4-1.8 4-4 0-1.1-.4-2.1-1.1-2.8-.3-.3-.6-.4-1-.4h-1.2zm7 0c-.4 0-.7.1-1 .4-.7.7-1.1 1.7-1.1 2.8 0 2.2 1.8 4 4 4 .3 0 .5 0 .7-.1.2-.1.3-.3.3-.5s-.1-.4-.2-.5c-.2-.1-.5-.2-.8-.2-1.7 0-3-1.4-3-3 0-.8.3-1.5.8-2 .1-.2.2-.4.1-.6-.1-.2-.3-.3-.6-.3h-1.2zm-7 9c-1.1 0-2.1.4-2.8 1.1-.7.7-1.1 1.7-1.1 2.8 0 2.2 1.8 4 4 4s4-1.8 4-4c0-1.1-.4-2.1-1.1-2.8-.7-.7-1.7-1.1-2.8-1.1h-.2zm7 0c-1.1 0-2.1.4-2.8 1.1-.7.7-1.1 1.7-1.1 2.8 0 2.2 1.8 4 4 4s4-1.8 4-4c0-1.1-.4-2.1-1.1-2.8-.7-.7-1.7-1.1-2.8-1.1h-.2z"/>
</svg>
